Coordinates
version=1
nRows=22
nColumns=24
inDegrees=yes

Units are S.I. units (second, meters, Newtons, ...)
Angles are in degrees.

endheader
time	pelvis_tilt	pelvis_list	pelvis_rotation	pelvis_tx	pelvis_ty	pelvis_tz	hip_flexion_r	hip_adduction_r	hip_rotation_r	knee_angle_r	ankle_angle_r	subtalar_angle_r	mtp_angle_r	hip_flexion_l	hip_adduction_l	hip_rotation_l	knee_angle_l	ankle_angle_l	subtalar_angle_l	mtp_angle_l	lumbar_extension	lumbar_bending	lumbar_rotation
      0.01000000	     37.05997566	      1.94768196	     -3.34332046	      0.68603066	      1.06878039	     -0.32803447	     41.78368569	     -4.09307456	      2.15559574	    -26.48000366	    -31.74582726	      0.00000000	      0.00000000	     29.37850366	    -15.89322140	     -6.92949320	    -68.73269509	    -14.34744492	      0.00000000	      0.00000000	      0.00000000	      0.00000000	      0.00000000
      0.02000000	     37.06065288	      1.94828651	     -3.34490152	      0.68603299	      1.06880870	     -0.32803712	     41.77967060	     -4.09413508	      2.15159165	    -26.48147005	    -31.74859700	      0.00000000	      0.00000000	     29.37444399	    -15.88904605	     -6.92731247	    -68.72564012	    -14.34601202	      0.00000000	      0.00000000	      0.00000000	      0.00000000	      0.00000000
      0.03000000	     37.06259474	      1.94850482	     -3.34624038	      0.68602990	      1.06883067	     -0.32803803	     41.77518294	     -4.09556215	      2.14864612	    -26.48242512	    -31.75080996	      0.00000000	      0.00000000	     29.36952909	    -15.88576384	     -6.92659109	    -68.72001389	    -14.34613133	      0.00000000	      0.00000000	      0.00000000	      0.00000000	      0.00000000
      0.04000000	     37.06618106	      1.94809301	     -3.34751874	      0.68602200	      1.06884195	     -0.32803872	     41.76977957	     -4.09689352	      2.14729355	    -26.48274056	    -31.75225435	      0.00000000	      0.00000000	     29.36345159	    -15.88395954	     -6.92768346	    -68.71637865	    -14.34803488	      0.00000000	      0.00000000	      0.00000000	      0.00000000	      0.00000000
      0.05000000	     37.07186425	      1.94672538	     -3.34917442	      0.68601208	      1.06884612	     -0.32803903	     41.76293199	     -4.09733058	      2.14805780	    -26.48237579	    -31.75279639	      0.00000000	      0.00000000	     29.35604494	    -15.88427615	     -6.93069422	    -68.71506162	    -14.35153696	      0.00000000	      0.00000000	      0.00000000	      0.00000000	      0.00000000
      0.06000000	     37.07995584	      1.94411631	     -3.35178880	      0.68600331	      1.06884941	     -0.32803723	     41.75424464	     -4.09592984	      2.15122821	    -26.48146845	    -31.75252010	      0.00000000	      0.00000000	     29.34731744	    -15.88728728	     -6.93528665	    -68.71588368	    -14.35576957	      0.00000000	      0.00000000	      0.00000000	      0.00000000	      0.00000000
      0.07000000	     37.09037408	      1.94001358	     -3.35580278	      0.68599571	      1.06885400	     -0.32802949	     41.74374031	     -4.09204755	      2.15674104	    -26.48031483	    -31.75176227	      0.00000000	      0.00000000	     29.33726395	    -15.89334606	     -6.94077477	    -68.71826719	    -14.35933801	      0.00000000	      0.00000000	      0.00000000	      0.00000000	      0.00000000
      0.08000000	     37.10256044	      1.93415928	     -3.36128711	      0.68598963	      1.06885788	     -0.32801127	     41.73197885	     -4.08577917	      2.16416927	    -26.47926902	    -31.75101537	      0.00000000	      0.00000000	     29.32584473	    -15.90232180	     -6.94638332	    -68.72150407	    -14.36083370	      0.00000000	      0.00000000	      0.00000000	      0.00000000	      0.00000000
      0.09000000	     37.11556681	      1.92651668	     -3.36790744	      0.68599014	      1.06885834	     -0.32798452	     41.71983404	     -4.07809257	      2.17279512	    -26.47860341	    -31.75073190	      0.00000000	      0.00000000	     29.31324311	    -15.91345085	     -6.95148267	    -68.72494057	    -14.35938629	      0.00000000	      0.00000000	      0.00000000	      0.00000000	      0.00000000
      0.10000000	     37.12825513	      1.91751800	     -3.37506549	      0.68599846	      1.06885724	     -0.32795968	     41.70817579	     -4.07057058	      2.18174111	    -26.47832727	    -31.75110570	      0.00000000	      0.00000000	     29.30004953	    -15.92541585	     -6.95575632	    -68.72809894	    -14.35495186	      0.00000000	      0.00000000	      0.00000000	      0.00000000	      0.00000000
      0.11000000	     37.13960339	      1.90800948	     -3.38213947	      0.68600354	      1.06885862	     -0.32794690	     41.69768374	     -4.06483100	      2.19012162	    -26.47806828	    -31.75193226	      0.00000000	      0.00000000	     29.28713653	    -15.93667821	     -6.95929084	    -68.73076378	    -14.34823556	      0.00000000	      0.00000000	      0.00000000	      0.00000000	      0.00000000
      0.12000000	     37.14907931	      1.89903674	     -3.38877851	      0.68599779	      1.06886157	     -0.32794565	     41.68873348	     -4.06188611	      2.19717092	    -26.47718223	    -31.75262934	      0.00000000	      0.00000000	     29.27542188	    -15.94611320	     -6.96248153	    -68.73296590	    -14.34038027	      0.00000000	      0.00000000	      0.00000000	      0.00000000	      0.00000000
      0.13000000	     37.15674408	      1.89153301	     -3.39502133	      0.68599248	      1.06886201	     -0.32794540	     41.68133650	     -4.06183772	      2.20235788	    -26.47507486	    -31.75242786	      0.00000000	      0.00000000	     29.26561037	    -15.95351495	     -6.96579346	    -68.73487991	    -14.33262892	      0.00000000	      0.00000000	      0.00000000	      0.00000000	      0.00000000
      0.14000000	     37.16288817	      1.88590126	     -3.40109457	      0.68599767	      1.06886031	     -0.32794047	     41.67520883	     -4.06404846	      2.20550656	    -26.47154716	    -31.75066781	      0.00000000	      0.00000000	     29.25787406	    -15.95944633	     -6.96954097	    -68.73670685	    -14.32605166	      0.00000000	      0.00000000	      0.00000000	      0.00000000	      0.00000000
      0.15000000	     37.16779819	      1.88173358	     -3.40718229	      0.68600397	      1.06886237	     -0.32793620	     41.67001289	     -4.06752420	      2.20686817	    -26.46694062	    -31.74707173	      0.00000000	      0.00000000	     29.25171462	    -15.96464515	     -6.97376048	    -68.73859346	    -14.32134032	      0.00000000	      0.00000000	      0.00000000	      0.00000000	      0.00000000
      0.16000000	     37.17193056	      1.87799796	     -3.41338470	      0.68600387	      1.06887015	     -0.32793513	     41.66552685	     -4.07119735	      2.20708159	    -26.46205821	    -31.74187692	      0.00000000	      0.00000000	     29.24619513	    -15.96960083	     -6.97816954	    -68.74060820	    -14.31869534	      0.00000000	      0.00000000	      0.00000000	      0.00000000	      0.00000000
      0.17000000	     37.17597354	      1.87374212	     -3.41968670	      0.68600759	      1.06887837	     -0.32792976	     41.66147908	     -4.07409212	      2.20703855	    -26.45800342	    -31.73577658	      0.00000000	      0.00000000	     29.24044627	    -15.97456641	     -6.98220390	    -68.74270972	    -14.31782477	      0.00000000	      0.00000000	      0.00000000	      0.00000000	      0.00000000
      0.18000000	     37.18059601	      1.86876002	     -3.42582747	      0.68601756	      1.06888467	     -0.32791658	     41.65735063	     -4.07553138	      2.20767185	    -26.45591879	    -31.72968252	      0.00000000	      0.00000000	     29.23411001	    -15.97979308	     -6.98519299	    -68.74470398	    -14.31804581	      0.00000000	      0.00000000	      0.00000000	      0.00000000	      0.00000000
      0.19000000	     37.18620015	      1.86346317	     -3.43135532	      0.68601988	      1.06889046	     -0.32790237	     41.65252419	     -4.07535727	      2.20965019	    -26.45658919	    -31.72440219	      0.00000000	      0.00000000	     29.22733899	    -15.98557342	     -6.98669202	    -68.74628204	    -14.31847261	      0.00000000	      0.00000000	      0.00000000	      0.00000000	      0.00000000
      0.20000000	     37.19288538	      1.85819401	     -3.43591996	      0.68601409	      1.06889315	     -0.32789252	     41.64661073	     -4.07388533	      2.21306344	    -26.46013353	    -31.72037994	      0.00000000	      0.00000000	     29.22045669	    -15.99191579	     -6.98676541	    -68.74716463	    -14.31826292	      0.00000000	      0.00000000	      0.00000000	      0.00000000	      0.00000000
      0.21000000	     37.20048178	      1.85296011	     -3.43941877	      0.68601186	      1.06889051	     -0.32788761	     41.63957550	     -4.07159527	      2.21732162	    -26.46603686	    -31.71761320	      0.00000000	      0.00000000	     29.21366907	    -15.99822959	     -6.98594099	    -68.74726663	    -14.31688217	      0.00000000	      0.00000000	      0.00000000	      0.00000000	      0.00000000
      0.22000000	     37.20860382	      1.84778655	     -3.44194406	      0.68600991	      1.06888667	     -0.32788917	     41.63161119	     -4.06894609	      2.22139120	    -26.47348943	    -31.71575592	      0.00000000	      0.00000000	     29.20693428	    -16.00357071	     -6.98482239	    -68.74672649	    -14.31430763	      0.00000000	      0.00000000	      0.00000000	      0.00000000	      0.00000000
